HIERARCHY
ROOT Hips
{
  OFFSET -331.093 83.8371 -317.828
  CHANNELS 6 Xposition Yposition Zposition Zrotation Xrotation Yrotation
  JOINT LeftUpLeg
  {
    OFFSET 8.64259 1.95398 -2.38835
    CHANNELS 3 Zrotation Xrotation Yrotation
    JOINT LeftLeg
    {
      OFFSET 43.7702 0 0
      CHANNELS 3 Zrotation Xrotation Yrotation
      JOINT LeftFoot
      {
        OFFSET 40.6238 0 0
        CHANNELS 3 Zrotation Xrotation Yrotation
        JOINT LeftToeBase
        {
          OFFSET 12.7242 0 0
          CHANNELS 3 Zrotation Xrotation Yrotation
          End Site
          {
            OFFSET 0 0 0
          }
        }
      }
    }
  }
  JOINT RightUpLeg
  {
    OFFSET -8.2249 1.95398 -2.59336
    CHANNELS 3 Zrotation Xrotation Yrotation
    JOINT RightLeg
    {
      OFFSET 43.5653 0 0
      CHANNELS 3 Zrotation Xrotation Yrotation
      JOINT RightFoot
      {
        OFFSET 40.6238 0 0
        CHANNELS 3 Zrotation Xrotation Yrotation
        JOINT RightToeBase
        {
          OFFSET 12.7242 0 0
          CHANNELS 3 Zrotation Xrotation Yrotation
          End Site
          {
            OFFSET 0 0 0
          }
        }
      }
    }
  }
  JOINT Spine
  {
    OFFSET 0.165834 0.87714 6.61349
    CHANNELS 3 Zrotation Xrotation Yrotation
    JOINT Spine1
    {
      OFFSET 7.38963 1.71661e-005 0
      CHANNELS 3 Zrotation Xrotation Yrotation
      JOINT Spine2
      {
        OFFSET 11.9445 1.14441e-005 0
        CHANNELS 3 Zrotation Xrotation Yrotation
        JOINT Spine3
        {
          OFFSET 14.7254 4.19617e-005 0
          CHANNELS 3 Zrotation Xrotation Yrotation
          JOINT Spine4
          {
            OFFSET 10.9679 0 0
            CHANNELS 3 Zrotation Xrotation Yrotation
            JOINT RightShoulder
            {
              OFFSET 2.46616 -1.6653 3.69651
              CHANNELS 3 Zrotation Xrotation Yrotation
              JOINT RightArm
              {
                OFFSET 13.0012 0 0
                CHANNELS 3 Zrotation Xrotation Yrotation
                JOINT RightForeArm
                {
                  OFFSET 28.7848 1.62311e-005 0
                  CHANNELS 3 Zrotation Xrotation Yrotation
                  JOINT RightHand
                  {
                    OFFSET 26.5688 1.62095e-005 0
                    CHANNELS 3 Zrotation Xrotation Yrotation
                    End Site
                    {
                      OFFSET 0 0 0
                    }
                  }
                }
              }
            }
            JOINT LeftShoulder
            {
              OFFSET 2.38034 -1.29275 -3.7523
              CHANNELS 3 Zrotation Xrotation Yrotation
              JOINT LeftArm
              {
                OFFSET 16.3182 6.07031e-005 0
                CHANNELS 3 Zrotation Xrotation Yrotation
                JOINT LeftForeArm
                {
                  OFFSET 27.0901 0 0
                  CHANNELS 3 Zrotation Xrotation Yrotation
                  JOINT LeftHand
                  {
                    OFFSET 24.5451 1.51738e-005 0
                    CHANNELS 3 Zrotation Xrotation Yrotation
                    End Site
                    {
                      OFFSET 0 0 0
                    }
                  }
                }
              }
            }
            JOINT Neck
            {
              OFFSET 5.0226 -0.0266342 0
              CHANNELS 3 Zrotation Xrotation Yrotation
              JOINT Head
              {
                OFFSET 6.69364 2.86102e-005 0
                CHANNELS 3 Zrotation Xrotation Yrotation
                End Site
                {
                  OFFSET 0 0 0
                }
              }
            }
          }
        }
      }
    }
  }
}
MOTION
Frames:	15
Frame Time:	0.0416667
-13.3109 99.3855 -176.449 -80.9645 -89.0375 -82.3795 -175.203 4.08084 91.0584 -8.85067 10.5883 -0.680554 60.2186 2.66031 7.18927 31.6469 2.71338 2.2361 170.282 4.83613 87.0176 -13.3162 -3.85042 -1.91361 66.2093 -2.60804 -1.46142 30.224 -0.410623 -2.94409 0.00874055 6.71482 -89.7352 13.4436 0.145564 0.511693 1.77257 0.167949 0.504786 -20.7618 -0.0149472 0.531785 -0.749121 -0.0149461 0.531784 91.1756 -42.1955 -100.426 35.747 -16.6184 2.56288 -8.31627 -11.7702 -38.6801 -4.05211 -0.439843 8.374 -99.2298 -50.6372 65.8828 -21.7136 13.3165 1.61912 4.7292 17.0484 -31.7341 10.0369 0.779673 3.62141 2.35506 0.676794 2.3222 -2.79653 0.299896 -0.521338 
-13.2988 99.3655 -176.438 -83.0279 -89.027 -84.4995 -175.306 4.0499 90.9853 -8.98831 9.8697 -0.529153 60.8963 2.79805 6.33342 30.637 1.92669 2.23181 170.304 4.85305 86.9513 -13.4009 -3.87774 -1.97009 66.2458 -2.60774 -1.46117 30.33 -0.39875 -2.81899 0.0191253 6.71967 -89.7402 13.4339 0.163733 0.499421 1.76289 0.185549 0.491727 -20.7715 0.00606871 0.525537 -0.75885 0.00606922 0.525541 91.2168 -42.1721 -100.363 35.6046 -16.6673 2.44015 -8.1946 -11.4296 -38.5673 -4.11072 -0.445623 8.34129 -99.4186 -50.7263 65.6435 -21.6934 13.3435 1.65424 4.39811 16.6177 -31.5407 10.0625 0.818378 3.95875 2.53487 0.626183 2.58568 -3.02829 0.207645 -0.829707 
-13.26 99.3457 -176.568 -63.5987 -88.5921 -65.1406 -175.409 4.55613 90.8442 -8.88322 9.80759 -0.577535 60.5733 2.75332 6.76813 30.8598 2.04149 2.00039 170.467 5.5314 87.0011 -13.4606 -3.85206 -2.00707 66.244 -2.64098 -1.47845 30.1818 -0.370364 -2.65104 0.0586961 6.67276 -89.754 13.5276 0.235715 0.462356 1.85662 0.255842 0.451517 -20.6779 0.085861 0.511823 -0.665275 0.0858642 0.511812 91.2957 -41.8774 -100.304 35.7774 -16.437 2.99344 -7.60525 -12.9593 -38.3611 -5.05422 -0.540663 7.8574 -99.7191 -51.0059 65.3136 -21.4551 13.5895 1.51594 3.96171 16.2174 -31.2439 10.4194 0.839533 3.91257 2.60245 0.582707 2.72321 -3.19165 0.141712 -0.786692 
-13.2958 99.3503 -176.573 -65.9159 -88.9746 -67.1229 -175.162 4.74155 91.2635 -9.49142 10.5082 -0.686569 60.9882 2.98437 6.88621 30.5377 1.87606 2.33751 170.61 5.02624 87.3654 -13.061 -3.36962 -2.00821 66.1002 -2.59187 -1.45012 30.0486 -0.384536 -2.80295 0.0209429 6.69163 -89.789 13.4903 0.143825 0.404206 1.8193 0.161483 0.397479 -20.7154 0.0156928 0.42874 -0.702709 0.0156939 0.428737 91.2692 -41.8885 -100.346 35.8551 -16.3806 3.09847 -7.3941 -13.0476 -38.359 -6.39684 -0.573742 5.2236 -99.5155 -50.8925 65.5641 -21.6505 13.5776 1.47765 4.04049 16.5386 -31.0827 10.2768 0.802259 3.67147 2.92287 0.62982 2.53926 -3.81533 0.213058 -0.657065 
-13.2792 99.3513 -176.593 -72.6727 -89.0916 -73.8498 -175.176 4.71616 91.2876 -9.82474 10.0743 -0.595423 61.4111 2.91257 6.1809 30.5095 1.91659 2.58826 170.576 4.82437 87.3471 -12.9875 -3.35103 -1.99701 66.1763 -2.64798 -1.47872 29.855 -0.374369 -2.78621 0.0233798 6.70734 -89.8052 13.4588 0.140787 0.372163 1.78784 0.157034 0.365601 -20.7469 0.0224252 0.39727 -0.73425 0.0224221 0.397265 91.2118 -41.82 -100.461 35.8747 -16.1978 3.26729 -7.49037 -13.1993 -38.6159 -5.97052 -0.528083 4.85531 -99.7006 -51.0282 65.3478 -21.5259 13.8171 1.62049 3.92376 16.1622 -31.3707 10.5143 0.886469 4.2649 2.85198 0.615374 2.66325 -3.87187 0.181675 -0.733521 
-13.2504 99.3304 -176.612 -68.5191 -89.0726 -69.7834 -175.13 4.79145 91.2389 -9.70879 10.4258 -0.736529 61.0999 2.87587 6.58531 30.6504 2.0069 2.50966 170.623 5.10268 87.2882 -13.3481 -3.29665 -2.0761 66.0784 -2.49873 -1.40625 30.414 -0.37776 -2.63348 0.0448937 6.69254 -89.7988 13.4883 0.186547 0.378912 1.81734 0.203051 0.370327 -20.7174 0.0640476 0.417459 -0.704746 0.0640514 0.417462 91.3269 -41.7854 -100.275 36.001 -16.0708 3.39775 -7.1467 -12.6729 -38.6519 -5.98657 -0.516483 4.55531 -99.8884 -51.0412 65.0851 -21.5459 13.7758 1.63111 3.98716 16.3437 -31.289 10.5944 0.902274 4.3493 2.6063 0.513204 2.73073 -3.64467 0.0772996 -0.93242 
-13.2451 99.3218 -176.631 -70.4694 -88.9626 -71.6209 -175.131 4.89848 91.3082 -9.92947 10.3316 -0.692435 61.2223 2.95225 6.70741 30.7544 2.07229 2.44744 170.736 4.99791 87.4155 -13.1275 -3.26878 -2.11771 66.0476 -2.53376 -1.42223 30.3871 -0.381936 -2.67394 0.0576524 6.69347 -89.8138 13.4865 0.204615 0.346635 1.81552 0.219671 0.337293 -20.7193 0.0909716 0.392105 -0.706651 0.0909748 0.392108 91.3742 -41.6915 -100.219 36.193 -15.9983 3.3481 -7.23112 -12.6099 -38.6848 -6.08865 -0.512396 4.23513 -99.7146 -51.0556 65.3382 -21.5404 13.7204 1.53347 3.88266 16.2141 -31.1623 10.4576 0.911661 4.52587 2.60842 0.562066 2.69619 -3.62308 0.129113 -0.814444 
-13.2001 99.3146 -176.595 -86.5862 -88.9947 -88.0726 -175.218 4.33271 90.9685 -9.54107 10.0505 -0.675347 61.3321 2.99304 6.39455 30.2487 1.6892 2.49035 170.397 4.92641 86.9674 -13.4577 -3.58588 -2.06315 66.4347 -2.66815 -1.49445 29.9275 -0.34574 -2.5402 0.0478742 6.72998 -89.7859 13.4134 0.198627 0.403417 1.74241 0.216189 0.394276 -20.7923 0.0682055 0.444466 -0.779622 0.0681934 0.444446 91.447 -41.5787 -100.124 36.1427 -16.1669 3.17936 -7.34713 -12.8371 -38.6652 -5.9472 -0.506969 4.36303 -99.6094 -51.0723 65.4937 -21.6385 13.7951 1.57245 3.81356 15.874 -31.2761 10.5479 0.914194 4.48583 2.86387 0.673855 2.81724 -4.03443 0.218729 -0.950829 
-13.1785 99.3096 -176.643 -71.2793 -88.9884 -72.5226 -175.145 4.96457 91.1894 -10.1233 10.4778 -0.742804 61.2946 3.06368 6.97541 30.5526 1.84165 2.15263 170.653 5.21795 87.2738 -13.5566 -3.41381 -2.09533 66.192 -2.52157 -1.42029 30.3986 -0.413422 -2.90776 0.0612506 6.69215 -89.8085 13.4891 0.214339 0.356032 1.81812 0.229803 0.346246 -20.7167 0.0974245 0.403989 -0.704034 0.0974281 0.403994 91.4784 -41.6895 -100.043 36.1189 -16.1704 3.15797 -7.35662 -12.8364 -38.4654 -5.91833 -0.497612 4.16691 -99.6686 -50.9953 65.382 -21.6249 13.9351 1.70771 3.76523 15.64 -31.4225 11.0074 0.935805 4.36321 2.79657 0.567783 2.68337 -4.09426 0.137529 -0.912828 
-13.0512 99.322 -176.66 -92.9117 -89.5838 -94.5553 -175.445 4.42464 90.6745 -9.73515 10.055 -0.563208 61.3874 2.89493 6.08594 30.3325 1.77103 2.55858 170.135 4.99292 86.6513 -13.6632 -3.2678 -1.93344 66.4162 -2.58937 -1.45624 30.1799 -0.331658 -2.35483 -0.00240096 6.72434 -89.7625 13.4247 0.110196 0.461486 1.75373 0.130397 0.456188 -20.7808 -0.0336051 0.47327 -0.768131 -0.0335905 0.473279 91.3721 -41.8472 -100.183 35.9943 -16.0943 3.21441 -7.00069 -12.4295 -38.396 -6.13716 -0.500212 3.84217 -99.6486 -50.9523 65.3953 -21.6668 13.8324 1.60635 3.86517 15.9939 -31.2856 10.6654 0.909411 4.36342 2.43689 0.537933 2.54254 -3.85626 0.136273 -0.842197 
-13.0214 99.3237 -176.663 -104.921 -89.5432 -106.636 -175.427 4.1969 90.6093 -9.45107 10.2809 -0.620442 61.1217 2.95778 6.50409 30.3683 1.68161 2.08203 170.104 4.96382 86.565 -13.7546 -3.38054 -1.97899 66.4024 -2.58546 -1.45479 30.238 -0.34298 -2.42317 -5.00854e-005 6.73848 -89.7577 13.3965 0.117148 0.470249 1.72546 0.137734 0.464632 -20.809 -0.029597 0.483717 -0.796365 -0.0295924 0.48372 91.4056 -41.8779 -100.119 35.959 -16.0375 3.17713 -7.23892 -12.5715 -38.4211 -5.87952 -0.4807 3.80949 -99.6066 -50.9557 65.4562 -21.5962 13.9777 1.54257 3.79434 15.8325 -31.3533 10.3844 0.883626 4.32756 2.48648 0.515774 2.50414 -3.8344 0.118244 -0.778474 
-13.0256 99.2937 -176.7 -79.2493 -89.5653 -80.7326 -175.355 4.63512 90.8571 -9.81569 10.4804 -0.643475 61.3296 3.0503 6.53176 30.4162 1.76859 2.28439 170.411 5.12286 86.8955 -13.7532 -3.20529 -2.07688 66.2427 -2.4936 -1.40865 30.482 -0.423204 -2.95442 0.0102285 6.71392 -89.7787 13.4456 0.127445 0.426819 1.77459 0.14611 0.420785 -20.76 -0.0067272 0.445385 -0.747361 -0.0067172 0.445385 91.4344 -41.9511 -100.052 35.9227 -16.0408 3.15412 -7.34099 -12.7395 -38.3923 -5.97484 -0.485781 3.74005 -99.5309 -50.8435 65.5248 -21.6255 14.2661 1.43275 3.63798 15.7584 -31.2267 10.9147 0.920347 4.2936 2.40524 0.404542 2.25569 -3.82962 0.0472966 -0.605041 
-12.9803 99.3219 -176.704 -93.9154 -89.5774 -95.4447 -175.445 4.51092 90.7313 -9.81754 10.3615 -0.560955 61.1547 2.94668 6.61941 30.5557 1.75413 1.79011 170.3 4.91486 86.782 -13.5118 -3.20506 -2.04816 66.3028 -2.57862 -1.44972 30.1321 -0.346307 -2.48095 -0.00213424 6.72236 -89.7633 13.4287 0.110351 0.459793 1.75768 0.130478 0.454481 -20.7768 -0.0329451 0.471697 -0.76417 -0.0329405 0.471691 91.314 -42.139 -100.208 35.7474 -16.0353 3.08664 -7.22112 -12.6289 -38.3029 -5.91077 -0.480159 3.72812 -99.3152 -50.7378 65.7958 -21.7549 14.1364 1.40804 3.75468 15.9407 -31.2247 10.7534 0.879044 4.0425 2.31913 0.379422 1.93669 -3.87772 0.071682 -0.382152 
-12.9324 99.3078 -176.702 -107.627 -89.6619 -109.344 -175.458 4.45166 90.5627 -9.8744 10.2213 -0.615758 61.4002 2.92436 6.15842 30.2881 1.70412 2.42654 170.156 5.09507 86.5419 -13.9627 -3.3215 -2.03017 66.3315 -2.51291 -1.42014 30.5774 -0.407844 -2.80941 -0.00703922 6.73212 -89.7358 13.409 0.113861 0.514438 1.738 0.136401 0.508928 -20.7963 -0.0460155 0.524879 -0.783697 -0.0460087 0.524878 91.3418 -42.3159 -100.117 35.5534 -16.1226 3.04769 -7.49946 -12.8693 -38.49 -5.72515 -0.469611 3.77947 -99.2893 -50.6637 65.8066 -21.6591 14.5023 1.26105 3.6591 16.0009 -31.1955 11.2575 0.939607 4.23458 2.35199 0.340708 1.99618 -3.91504 0.0277185 -0.633047 
-12.9241 99.3111 -176.706 -93.6336 -89.6641 -95.2435 -175.47 4.5336 90.6377 -9.89 10.2941 -0.576376 61.5161 3.07066 6.27638 29.9253 1.457 2.57176 170.254 5.0445 86.6826 -13.7378 -3.10667 -2.0555 66.354 -2.55574 -1.44033 30.3914 -0.362647 -2.52587 0.00196919 6.72141 -89.751 13.4306 0.124456 0.482795 1.75954 0.14559 0.476854 -20.7749 -0.0264009 0.49788 -0.762257 -0.0263925 0.497889 91.3973 -42.3181 -100.023 35.4776 -16.1797 2.99821 -7.37942 -12.8213 -38.3156 -5.9093 -0.476428 3.60316 -99.3493 -50.6463 65.7142 -21.6271 14.6441 1.30659 3.81087 16.1912 -31.4103 11.5104 0.988934 4.4772 2.32557 0.327113 1.91195 -4.0247 0.023987 -0.357891 
